<svg width="173.014" height="37.611" xmlns="http://www.w3.org/2000/svg" xml:space="preserve" enable-background="new 0 0 632.014 126.611" version="1.1">

 <g>
  <title>Layer 1</title>
  <g stroke="null" id="svg_13">
   <polygon stroke="null" id="svg_1" points="9.547506203294393,13.870734707351176 15.957926576211936,7.4605744073465985 22.371737345153566,13.874124108832575 26.101763730006883,10.144097723979257 15.957926576211936,0 5.817479321169731,10.140708322497858 " fill="#F3BA2F"/>
   <rect stroke="null" id="svg_2" height="20.234" width="20.233" fill="#F3BA2F" transform="matrix(0.18435 0.18435 -0.18435 0.18435 12.3169 2.29704)" y="53.188" x="3.644"/>
   <polygon stroke="null" id="svg_3" points="9.547506203294393,19.138448406004045 15.957926576211936,25.548610197822654 22.371476774969256,19.13532156379233 26.103589710382426,22.863261398085797 26.101763730006883,22.86534794864565 15.957926576211936,33.00918410789791 5.817218750985422,22.86873735012705 5.812004363671168,22.863521968270106 " fill="#F3BA2F"/>
   <rect stroke="null" id="svg_4" height="20.233" width="20.234" fill="#F3BA2F" transform="matrix(-0.18435 0.18435 -0.18435 -0.18435 61.0057 7.5738)" y="53.189" x="101.64"/>
   <polygon stroke="null" id="svg_5" points="19.74140067967203,16.502636783023945 19.742964100777886,16.502636783023945 15.957926576211936,12.717599258457994 13.160732500302334,15.514793334367596 13.160471930118025,15.514793334367596 12.839273428992943,15.836253400219675 12.176279447670073,16.499247381542546 12.176279447670073,16.499247381542546 12.171065060355819,16.5044617688568 12.176279447670073,16.509936726355363 15.957926576211936,20.291584849439914 19.742964100777886,16.506547324873964 19.744788092068053,16.5044617688568 " fill="#F3BA2F"/>
   <path stroke="null" id="svg_6" d="m38.27786,7.99843l8.11262,0c2.01349,0 3.53606,0.51673 4.56796,1.5502c0.79857,0.80039 1.19772,1.7924 1.19772,2.97578l0,0.05006c0,0.50005 -0.06179,0.94196 -0.18615,1.32521c-0.1241,0.38377 -0.28991,0.72922 -0.49718,1.03764c-0.20675,0.30868 -0.44712,0.57957 -0.72035,0.81264c-0.27349,0.2336 -0.56731,0.43383 -0.88199,0.60016c1.01209,0.38377 1.80883,0.90441 2.3897,1.56298c0.58061,0.65882 0.8713,1.57158 0.8713,2.73827l0,0.0498c0,0.80039 -0.15382,1.50041 -0.46172,2.10083c-0.3079,0.5999 -0.74903,1.10021 -1.32338,1.50041c-0.57435,0.4002 -1.26498,0.70002 -2.07215,0.90024c-0.80717,0.19997 -1.70168,0.29982 -2.68326,0.29982l-8.31311,0l0,-17.50404zm7.30154,7.07654c0.85045,0 1.52569,-0.14548 2.02548,-0.43748c0.50005,-0.29174 0.75007,-0.76285 0.75007,-1.41281l0,-0.05006c0,-0.58322 -0.21691,-1.02904 -0.65022,-1.33772c-0.43357,-0.30842 -1.05876,-0.46277 -1.87531,-0.46277l-3.80094,0l0,3.70083l3.55092,0zm1.02539,7.05204c0.85019,0 1.51657,-0.15382 2.00045,-0.46251c0.48336,-0.30842 0.7253,-0.78788 0.7253,-1.4381l0,-0.0498c0,-0.58348 -0.22526,-1.04598 -0.67525,-1.38804c-0.45025,-0.34127 -1.1753,-0.5123 -2.17565,-0.5123l-4.45116,0l0,3.851l4.5763,0l0,-0.00026z" fill="#F3BA2F"/>
   <path stroke="null" id="svg_7" d="m57.96303,7.99843l3.85126,0l0,17.50456l-3.85126,0l0,-17.50456z" fill="#F3BA2F"/>
   <path stroke="null" id="svg_8" d="m67.64723,7.99843l3.5504,0l8.2023,10.77789l0,-10.77789l3.80094,0l0,17.50456l-3.2756,0l-8.47736,-11.12777l0,11.12777l-3.80068,0l0,-17.50456z" fill="#F3BA2F"/>
   <path stroke="null" id="svg_9" d="m94.85997,7.87354l3.55066,0l7.50229,17.62944l-4.0262,0l-1.60052,-3.92582l-7.40191,0l-1.60026,3.92582l-3.9266,0l7.50255,-17.62944zm4.05096,10.30235l-2.32582,-5.67625l-2.32504,5.67625l4.65087,0z" fill="#F3BA2F"/>
   <path stroke="null" id="svg_10" d="m110.06999,7.99843l3.55118,0l8.20178,10.77789l0,-10.77789l3.80094,0l0,17.50456l-3.2756,0l-8.47736,-11.12777l0,11.12777l-3.80094,0l0,-17.50456z" fill="#F3BA2F"/>
   <path stroke="null" id="svg_11" d="m139.48341,25.80281c-1.28427,0 -2.47573,-0.2336 -3.57621,-0.70002s-2.05051,-1.10438 -2.85064,-1.91311c-0.80039,-0.80847 -1.42584,-1.76294 -1.87531,-2.86315c-0.45025,-1.10047 -0.67525,-2.27577 -0.67525,-3.52615l0,-0.0498c0,-1.25038 0.225,-2.42125 0.67525,-3.51337c0.44973,-1.09187 1.07492,-2.05051 1.87531,-2.87567c0.79987,-0.82516 1.75877,-1.47564 2.87541,-1.95066s2.35111,-0.71253 3.70135,-0.71253c0.81629,0 1.56219,0.067 2.23744,0.19997c0.67525,0.13375 1.28766,0.31677 1.83829,0.55011c0.55037,0.2336 1.05824,0.51699 1.52569,0.85019c0.46589,0.33371 0.89972,0.70028 1.29992,1.10047l-2.45018,2.82561c-0.68437,-0.61659 -1.37996,-1.10047 -2.08831,-1.45035c-0.70888,-0.34988 -1.50458,-0.52508 -2.38813,-0.52508c-0.73365,0 -1.41307,0.14183 -2.03774,0.42522c-0.62519,0.2834 -1.16304,0.67499 -1.61329,1.17504c-0.44973,0.50005 -0.79987,1.07961 -1.05041,1.73792c-0.2495,0.65882 -0.37438,1.36301 -0.37438,2.11308l0,0.0498c0,0.75007 0.12488,1.45895 0.37438,2.12534c0.25055,0.66717 0.59573,1.25038 1.03816,1.75043c0.44139,0.50005 0.97507,0.89633 1.6,1.18807c0.62571,0.292 1.31321,0.43748 2.06329,0.43748c1.00062,0 1.84585,-0.18328 2.53778,-0.55011c0.69193,-0.3663 1.37996,-0.86661 2.06329,-1.50041l2.45071,2.47573c-0.45025,0.48362 -0.91771,0.91719 -1.40029,1.30018c-0.48362,0.38377 -1.01287,0.71279 -1.58827,0.9881c-0.57487,0.27479 -1.20476,0.48362 -1.88757,0.62493c-0.68411,0.14157 -1.45061,0.21274 -2.30027,0.21274z" fill="#F3BA2F"/>
   <path stroke="null" id="svg_12" d="m151.19205,7.99843l13.17828,0l0,3.42603l-9.37708,0l0,3.55092l8.2521,0l0,3.42577l-8.2521,0l0,3.67606l9.50274,0l0,3.42577l-13.30394,0l0,-17.50456z" fill="#F3BA2F"/>
  </g>
 </g>
</svg>