<svg width="418" height="439" viewBox="0 0 418 439" fill="none" xmlns="http://www.w3.org/2000/svg">
<g opacity="0.11">
<path d="M185.64 229.353C204.64 215.549 230.368 215.549 249.368 229.353L307.658 271.704C326.658 285.508 334.608 309.976 327.351 332.312L305.086 400.836C297.829 423.172 277.015 438.295 253.529 438.295H181.479C157.993 438.295 137.179 423.172 129.922 400.836L107.657 332.312C100.4 309.976 108.35 285.508 127.35 271.703L185.64 229.353Z" fill="url(#paint0_radial_1713_19408)"/>
<g filter="url(#filter0_ii_1713_19408)">
<path d="M174.923 289.325H255.448C271.416 289.325 284.36 302.269 284.36 318.237V318.237C284.36 334.204 271.416 347.149 255.448 347.149H143.414L174.923 289.325Z" fill="white"/>
</g>
<path d="M143.414 347.149H255.139L273.518 394.131L143.414 347.149Z" fill="url(#paint1_linear_1713_19408)"/>
</g>
<g opacity="0.66">
<path d="M171.309 124.933C198.714 105.022 235.822 105.022 263.226 124.933L347.299 186.016C374.703 205.926 386.17 241.218 375.703 273.433L343.59 372.268C333.122 404.483 303.101 426.295 269.228 426.295H165.307C131.434 426.295 101.413 404.483 90.9454 372.268L58.8322 273.433C48.3647 241.218 59.8317 205.926 87.2359 186.016L171.309 124.933Z" fill="url(#paint2_radial_1713_19408)"/>
<g filter="url(#filter1_ii_1713_19408)">
<path d="M155.848 211.431H271.992C295.023 211.431 313.693 230.101 313.693 253.132V253.132C313.693 276.163 295.023 294.833 271.992 294.833H110.402L155.848 211.431Z" fill="white"/>
</g>
<path d="M110.402 294.833H271.547L298.055 362.596L110.402 294.833Z" fill="url(#paint3_linear_1713_19408)"/>
</g>
<path d="M149.806 19.2622C185.103 -6.42077 232.898 -6.42074 268.194 19.2623L376.48 98.0554C411.777 123.738 426.546 169.263 413.064 210.819L371.702 338.309C358.22 379.865 319.553 408 275.925 408H142.075C98.4465 408 59.7796 379.864 46.2975 338.309L4.93581 210.819C-8.54624 169.263 6.22324 123.738 41.5197 98.0554L149.806 19.2622Z" fill="url(#paint4_radial_1713_19408)"/>
<g filter="url(#filter2_ii_1713_19408)">
<path d="M117.404 142.81H273.344C304.266 142.81 329.333 167.878 329.333 198.799V198.799C329.333 229.721 304.266 254.788 273.344 254.788H56.3867L117.404 142.81Z" fill="white"/>
</g>
<path d="M56.3867 254.789H272.746L308.337 345.771L56.3867 254.789Z" fill="url(#paint5_linear_1713_19408)"/>
<circle cx="205.5" cy="146.5" r="61" fill="url(#paint6_linear_1713_19408)" stroke="white" stroke-width="7"/>
<g filter="url(#filter3_d_1713_19408)">
<path d="M215.386 162.253C213.333 165.172 211.096 167.957 208.689 170.591C215.098 176.812 221.063 179.726 224.367 177.813C227.679 175.904 228.135 169.284 225.954 160.624C222.684 161.352 219.131 161.904 215.386 162.253V162.253ZM210.364 162.587C207.457 162.707 204.546 162.707 201.639 162.587C203.085 164.473 204.545 166.221 206.002 167.815C207.458 166.221 208.915 164.473 210.364 162.587ZM229.684 132.326C239.9 135.255 246.57 140.123 246.57 146C246.57 151.876 239.9 156.745 229.684 159.673C232.252 169.985 231.375 178.196 226.288 181.132C221.197 184.073 213.645 180.73 206.002 173.351C198.358 180.73 190.806 184.073 185.716 181.132C180.629 178.196 179.747 169.985 182.319 159.673C172.104 156.745 165.434 151.876 165.434 146C165.434 140.123 172.104 135.255 182.319 132.326C179.751 122.015 180.629 113.804 185.716 110.867C190.806 107.927 198.358 111.27 206.002 118.649C213.645 111.27 221.197 107.927 226.288 110.867C231.375 113.804 232.256 122.015 229.684 132.326V132.326ZM225.954 131.376C228.139 122.712 227.679 116.096 224.371 114.187C221.063 112.274 215.098 115.188 208.693 121.409C210.958 123.874 213.212 126.676 215.386 129.747C219.135 130.092 222.684 130.644 225.954 131.376ZM186.049 160.624C183.864 169.287 184.324 175.904 187.632 177.813C190.941 179.726 196.905 176.812 203.311 170.591C200.905 167.957 198.669 165.172 196.618 162.253C193.064 161.936 189.534 161.391 186.049 160.624V160.624ZM201.639 129.413C204.546 129.293 207.457 129.293 210.364 129.413C208.986 127.609 207.531 125.866 206.002 124.188C204.545 125.783 203.088 127.531 201.639 129.417V129.413ZM196.618 129.747C198.672 126.828 200.91 124.043 203.318 121.409C196.905 115.188 190.937 112.274 187.636 114.187C184.324 116.096 183.868 122.716 186.049 131.376C189.319 130.647 192.873 130.095 196.618 129.747V129.747ZM213.262 158.573C215.991 154.569 218.416 150.366 220.519 146C218.416 141.634 215.991 137.431 213.262 133.427C208.429 133.065 203.575 133.065 198.741 133.427C196.013 137.431 193.587 141.634 191.485 146C193.587 150.366 196.013 154.569 198.741 158.573C203.575 158.935 208.429 158.935 213.262 158.573V158.573ZM218.184 158.071C220.542 157.764 222.784 157.37 224.892 156.906C224.203 154.743 223.42 152.611 222.546 150.516C221.197 153.092 219.742 155.611 218.184 158.067V158.071ZM193.819 133.925C191.462 134.232 189.219 134.626 187.111 135.09C187.763 137.145 188.545 139.284 189.457 141.48C190.806 138.904 192.262 136.385 193.819 133.929V133.925ZM187.111 156.902C189.219 157.366 191.462 157.757 193.819 158.067C192.262 155.611 190.806 153.092 189.457 150.516C188.545 152.708 187.763 154.847 187.111 156.902ZM183.362 155.963C184.363 152.766 185.662 149.415 187.234 145.996C185.662 142.577 184.363 139.226 183.362 136.029C174.768 138.471 169.267 142.178 169.267 145.996C169.267 149.814 174.768 153.521 183.362 155.963ZM224.892 135.09C222.784 134.626 220.542 134.235 218.184 133.925C219.742 136.381 221.197 138.9 222.546 141.477C223.459 139.284 224.241 137.145 224.892 135.09V135.09ZM228.641 136.029C227.641 139.226 226.341 142.577 224.77 145.996C226.341 149.415 227.641 152.766 228.641 155.963C237.236 153.521 242.737 149.814 242.737 145.996C242.737 142.178 237.236 138.471 228.641 136.029ZM206.002 153.207C205.055 153.207 204.118 153.02 203.244 152.658C202.37 152.296 201.575 151.765 200.906 151.096C200.237 150.427 199.706 149.632 199.344 148.758C198.982 147.883 198.795 146.946 198.795 146C198.795 145.053 198.982 144.116 199.344 143.242C199.706 142.368 200.237 141.573 200.906 140.904C201.575 140.235 202.37 139.704 203.244 139.342C204.118 138.98 205.055 138.793 206.002 138.793C207.913 138.793 209.746 139.552 211.098 140.904C212.449 142.255 213.208 144.089 213.208 146C213.208 147.911 212.449 149.744 211.098 151.096C209.746 152.447 207.913 153.207 206.002 153.207V153.207Z" fill="white"/>
</g>
<defs>
<filter id="filter0_ii_1713_19408" x="143.414" y="287.325" width="140.945" height="61.8241" filterUnits="userSpaceOnUse" color-interpolation-filters="sRGB">
<feFlood flood-opacity="0" result="BackgroundImageFix"/>
<feBlend mode="normal" in="SourceGraphic" in2="BackgroundImageFix" result="shape"/>
<feColorMatrix in="SourceAlpha" type="matrix" values="0 0 0 0 0 0 0 0 0 0 0 0 0 0 0 0 0 0 127 0" result="hardAlpha"/>
<feOffset dy="3"/>
<feGaussianBlur stdDeviation="1"/>
<feComposite in2="hardAlpha" operator="arithmetic" k2="-1" k3="1"/>
<feColorMatrix type="matrix" values="0 0 0 0 0.227451 0 0 0 0 0.705883 0 0 0 0 0.992157 0 0 0 0.16 0"/>
<feBlend mode="normal" in2="shape" result="effect1_innerShadow_1713_19408"/>
<feColorMatrix in="SourceAlpha" type="matrix" values="0 0 0 0 0 0 0 0 0 0 0 0 0 0 0 0 0 0 127 0" result="hardAlpha"/>
<feOffset dy="-2"/>
<feGaussianBlur stdDeviation="2"/>
<feComposite in2="hardAlpha" operator="arithmetic" k2="-1" k3="1"/>
<feColorMatrix type="matrix" values="0 0 0 0 0.658824 0 0 0 0 0.458824 0 0 0 0 1 0 0 0 0.16 0"/>
<feBlend mode="normal" in2="effect1_innerShadow_1713_19408" result="effect2_innerShadow_1713_19408"/>
</filter>
<filter id="filter1_ii_1713_19408" x="110.402" y="209.431" width="203.289" height="87.4014" filterUnits="userSpaceOnUse" color-interpolation-filters="sRGB">
<feFlood flood-opacity="0" result="BackgroundImageFix"/>
<feBlend mode="normal" in="SourceGraphic" in2="BackgroundImageFix" result="shape"/>
<feColorMatrix in="SourceAlpha" type="matrix" values="0 0 0 0 0 0 0 0 0 0 0 0 0 0 0 0 0 0 127 0" result="hardAlpha"/>
<feOffset dy="3"/>
<feGaussianBlur stdDeviation="1"/>
<feComposite in2="hardAlpha" operator="arithmetic" k2="-1" k3="1"/>
<feColorMatrix type="matrix" values="0 0 0 0 0.227451 0 0 0 0 0.705883 0 0 0 0 0.992157 0 0 0 0.16 0"/>
<feBlend mode="normal" in2="shape" result="effect1_innerShadow_1713_19408"/>
<feColorMatrix in="SourceAlpha" type="matrix" values="0 0 0 0 0 0 0 0 0 0 0 0 0 0 0 0 0 0 127 0" result="hardAlpha"/>
<feOffset dy="-2"/>
<feGaussianBlur stdDeviation="2"/>
<feComposite in2="hardAlpha" operator="arithmetic" k2="-1" k3="1"/>
<feColorMatrix type="matrix" values="0 0 0 0 0.658824 0 0 0 0 0.458824 0 0 0 0 1 0 0 0 0.16 0"/>
<feBlend mode="normal" in2="effect1_innerShadow_1713_19408" result="effect2_innerShadow_1713_19408"/>
</filter>
<filter id="filter2_ii_1713_19408" x="56.3867" y="140.81" width="272.945" height="115.978" filterUnits="userSpaceOnUse" color-interpolation-filters="sRGB">
<feFlood flood-opacity="0" result="BackgroundImageFix"/>
<feBlend mode="normal" in="SourceGraphic" in2="BackgroundImageFix" result="shape"/>
<feColorMatrix in="SourceAlpha" type="matrix" values="0 0 0 0 0 0 0 0 0 0 0 0 0 0 0 0 0 0 127 0" result="hardAlpha"/>
<feOffset dy="3"/>
<feGaussianBlur stdDeviation="1"/>
<feComposite in2="hardAlpha" operator="arithmetic" k2="-1" k3="1"/>
<feColorMatrix type="matrix" values="0 0 0 0 0.227451 0 0 0 0 0.705883 0 0 0 0 0.992157 0 0 0 0.16 0"/>
<feBlend mode="normal" in2="shape" result="effect1_innerShadow_1713_19408"/>
<feColorMatrix in="SourceAlpha" type="matrix" values="0 0 0 0 0 0 0 0 0 0 0 0 0 0 0 0 0 0 127 0" result="hardAlpha"/>
<feOffset dy="-2"/>
<feGaussianBlur stdDeviation="2"/>
<feComposite in2="hardAlpha" operator="arithmetic" k2="-1" k3="1"/>
<feColorMatrix type="matrix" values="0 0 0 0 0.658824 0 0 0 0 0.458824 0 0 0 0 1 0 0 0 0.16 0"/>
<feBlend mode="normal" in2="effect1_innerShadow_1713_19408" result="effect2_innerShadow_1713_19408"/>
</filter>
<filter id="filter3_d_1713_19408" x="156" y="100" width="100" height="100" filterUnits="userSpaceOnUse" color-interpolation-filters="sRGB">
<feFlood flood-opacity="0" result="BackgroundImageFix"/>
<feColorMatrix in="SourceAlpha" type="matrix" values="0 0 0 0 0 0 0 0 0 0 0 0 0 0 0 0 0 0 127 0" result="hardAlpha"/>
<feOffset dy="4"/>
<feGaussianBlur stdDeviation="2"/>
<feColorMatrix type="matrix" values="0 0 0 0 0.0392157 0 0 0 0 0.623529 0 0 0 0 0.882353 0 0 0 1 0"/>
<feBlend mode="normal" in2="BackgroundImageFix" result="effect1_dropShadow_1713_19408"/>
<feBlend mode="normal" in="SourceGraphic" in2="effect1_dropShadow_1713_19408" result="shape"/>
</filter>
<radialGradient id="paint0_radial_1713_19408" cx="0" cy="0" r="1" gradientUnits="userSpaceOnUse" gradientTransform="translate(224.536 219) rotate(91.8365) scale(219.409 225.114)">
<stop stop-color="#31E7FA"/>
<stop offset="0.526042" stop-color="#4477FF"/>
<stop offset="1" stop-color="#74CDFF"/>
</radialGradient>
<linearGradient id="paint1_linear_1713_19408" x1="208.466" y1="347.149" x2="208.466" y2="394.131" gradientUnits="userSpaceOnUse">
<stop stop-color="white" stop-opacity="0.6"/>
<stop offset="1" stop-color="white"/>
</linearGradient>
<radialGradient id="paint2_radial_1713_19408" cx="0" cy="0" r="1" gradientUnits="userSpaceOnUse" gradientTransform="translate(335.223 401) rotate(-177.937) scale(236.153 242.293)">
<stop stop-color="#31E7FA" stop-opacity="0"/>
<stop offset="0.526042" stop-color="#44D2FF" stop-opacity="0.35"/>
<stop offset="1" stop-color="#74DEFF"/>
</radialGradient>
<linearGradient id="paint3_linear_1713_19408" x1="204.229" y1="294.833" x2="204.229" y2="362.596" gradientUnits="userSpaceOnUse">
<stop stop-color="white" stop-opacity="0.6"/>
<stop offset="1" stop-color="white"/>
</linearGradient>
<radialGradient id="paint4_radial_1713_19408" cx="0" cy="0" r="1" gradientUnits="userSpaceOnUse" gradientTransform="translate(222.064) rotate(91.8338) scale(408.212 418.197)">
<stop stop-color="#31E7FA"/>
<stop offset="0.526042" stop-color="#4477FF"/>
<stop offset="1" stop-color="#74CDFF"/>
</radialGradient>
<linearGradient id="paint5_linear_1713_19408" x1="182.362" y1="254.789" x2="182.362" y2="345.771" gradientUnits="userSpaceOnUse">
<stop stop-color="white" stop-opacity="0.6"/>
<stop offset="1" stop-color="white"/>
</linearGradient>
<linearGradient id="paint6_linear_1713_19408" x1="205.5" y1="82" x2="205.5" y2="211" gradientUnits="userSpaceOnUse">
<stop stop-color="#01E2FD"/>
<stop offset="1" stop-color="#0A97DD"/>
</linearGradient>
</defs>
</svg>
