<svg width="855" height="678" viewBox="0 0 855 678" fill="none" xmlns="http://www.w3.org/2000/svg">
<path d="M338.419 -209.156C347.257 -213.854 380.447 -225.251 390.159 -206.988C399.871 -188.724 372.011 -167.537 362.533 -162.498C353.055 -157.459 337.619 -157.929 328.861 -174.399C320.103 -190.869 329.582 -204.458 338.419 -209.156ZM436.939 -29.5139C445.776 -34.2121 478.966 -45.6094 488.678 -27.3459C498.39 -9.08234 470.53 12.1051 461.052 17.1443C451.574 22.1831 436.138 21.7129 427.38 5.24319C418.622 -11.2269 428.101 -24.8157 436.939 -29.5139ZM427.387 677.042C369.751 677.042 313.774 665.764 261.001 643.564C210.075 622.078 164.388 591.453 125.204 552.439C85.9637 513.369 55.1481 467.863 33.624 417.178C11.3275 364.69 0 308.938 0 251.535C0 194.131 11.3275 138.379 33.624 85.8545C55.1858 35.1877 85.9637 -10.3373 125.204 -49.3508C164.407 -88.3831 210.094 -119.065 261.001 -140.514C274.194 -146.031 288.085 -148.883 302.315 -148.883C345.023 -148.883 383.416 -123.549 400.077 -84.3482C422.882 -30.7167 397.551 31.416 343.685 54.1219C318.109 64.8747 295.077 80.3374 275.268 100.041C255.46 119.801 239.929 142.714 229.111 168.178C217.915 194.544 212.28 222.58 212.28 251.535C212.28 280.49 217.915 308.525 229.111 334.872C239.929 360.375 255.46 383.268 275.268 402.991C295.039 422.713 318.071 438.176 343.685 448.966C370.147 460.094 398.305 465.705 427.387 465.705C456.488 465.705 484.646 460.094 511.127 448.966C536.721 438.176 559.734 422.713 579.524 402.991C599.295 383.287 614.845 360.393 625.682 334.872C636.877 308.488 642.551 280.471 642.551 251.535C642.551 193.268 690.141 145.867 748.662 145.867C807.165 145.867 854.774 193.268 854.774 251.535C854.774 308.938 843.465 364.69 821.131 417.178C799.645 467.863 768.829 513.369 729.607 552.439C690.404 591.453 644.68 622.078 593.792 643.564C541.019 665.764 485.023 677.042 427.387 677.042ZM443.293 -109.355C453.154 -114.598 493.748 -129.207 504.585 -108.828C515.422 -88.4494 480.776 -62.9154 470.2 -57.2927C459.624 -51.6699 442.401 -52.1946 432.628 -70.5722C422.855 -88.9498 433.433 -104.113 443.293 -109.355ZM405.752 -176.616C415.613 -181.859 455.239 -195.954 466.076 -175.575C476.913 -155.196 443.235 -130.176 432.659 -124.554C422.083 -118.931 404.86 -119.456 395.087 -137.834C385.314 -156.211 395.891 -171.374 405.752 -176.616Z" fill="url(#paint0_linear_1338_19885)" fill-opacity="0.1"/>
<defs>
<linearGradient id="paint0_linear_1338_19885" x1="-56.2732" y1="172.99" x2="915.819" y2="78.7212" gradientUnits="userSpaceOnUse">
<stop stop-color="#4739ED"/>
<stop offset="0.359375" stop-color="#3A67DC" stop-opacity="0.69"/>
<stop offset="0.963542" stop-color="#2C65FF" stop-opacity="0"/>
</linearGradient>
</defs>
</svg>
